<svg width="163" height="162" viewBox="0 0 163 162" fill="none" xmlns="http://www.w3.org/2000/svg">
<g filter="url(#filter0_d_7_81)">
<mask id="path-1-inside-1_7_81" fill="white">
<ellipse cx="71.7722" cy="71" rx="60.2278" ry="60"/>
</mask>
<path d="M40 71C40 52.9984 54.5539 39 71.7722 39V223C155.516 223 224 155.276 224 71H40ZM71.7722 39C88.9904 39 103.544 52.9984 103.544 71H-80.4557C-80.4557 155.276 -11.9719 223 71.7722 223V39ZM103.544 71C103.544 89.0016 88.9904 103 71.7722 103V-81C-11.9719 -81 -80.4557 -13.2757 -80.4557 71H103.544ZM71.7722 103C54.5539 103 40 89.0016 40 71H224C224 -13.2757 155.516 -81 71.7722 -81V103Z" fill="black" mask="url(#path-1-inside-1_7_81)"/>
<path d="M71.7722 131H15.5595L34.1236 114L71.7722 131Z" fill="black"/>
</g>
<defs>
<filter id="filter0_d_7_81" x="0.544312" y="0" width="162.456" height="162" filterUnits="userSpaceOnUse" color-interpolation-filters="sRGB">
<feFlood flood-opacity="0" result="BackgroundImageFix"/>
<feColorMatrix in="SourceAlpha" type="matrix" values="0 0 0 0 0 0 0 0 0 0 0 0 0 0 0 0 0 0 127 0" result="hardAlpha"/>
<feOffset dx="10" dy="10"/>
<feGaussianBlur stdDeviation="10.5"/>
<feColorMatrix type="matrix" values="0 0 0 0 1 0 0 0 0 1 0 0 0 0 1 0 0 0 0.25 0"/>
<feBlend mode="normal" in2="BackgroundImageFix" result="effect1_dropShadow_7_81"/>
<feBlend mode="normal" in="SourceGraphic" in2="effect1_dropShadow_7_81" result="shape"/>
</filter>
</defs>
</svg>
