<svg width="275" height="203" viewBox="0 0 275 203" fill="none" xmlns="http://www.w3.org/2000/svg">
<path d="M178.5 54.5C178.5 77.7806 159.522 97.5 137.5 97.5C114.856 97.5 96.5 79.1437 96.5 56.5C96.5 33.2194 115.478 13.5 137.5 13.5C160.144 13.5 178.5 31.8563 178.5 54.5Z" stroke="black" stroke-width="27"/>
<path d="M87 111L101.763 97L138 111H87Z" fill="black"/>
<path d="M43.56 156.36C42.168 153.432 40.152 151.176 37.512 149.592C34.872 147.96 31.8 147.144 28.296 147.144C24.792 147.144 21.624 147.96 18.792 149.592C16.008 151.176 13.8 153.48 12.168 156.504C10.584 159.48 9.792 162.936 9.792 166.872C9.792 170.808 10.584 174.264 12.168 177.24C13.8 180.216 16.008 182.52 18.792 184.152C21.624 185.736 24.792 186.528 28.296 186.528C33.192 186.528 37.224 185.064 40.392 182.136C43.56 179.208 45.408 175.248 45.936 170.256H25.92V164.928H52.92V169.968C52.536 174.096 51.24 177.888 49.032 181.344C46.824 184.752 43.92 187.464 40.32 189.48C36.72 191.448 32.712 192.432 28.296 192.432C23.64 192.432 19.392 191.352 15.552 189.192C11.712 186.984 8.664 183.936 6.408 180.048C4.2 176.16 3.096 171.768 3.096 166.872C3.096 161.976 4.2 157.584 6.408 153.696C8.664 149.76 11.712 146.712 15.552 144.552C19.392 142.344 23.64 141.24 28.296 141.24C33.624 141.24 38.328 142.56 42.408 145.2C46.536 147.84 49.536 151.56 51.408 156.36H43.56ZM109.895 186.672H127.463V192H103.343V141.816H109.895V186.672ZM201.309 166.152C203.133 166.44 204.789 167.184 206.277 168.384C207.813 169.584 209.013 171.072 209.877 172.848C210.789 174.624 211.245 176.52 211.245 178.536C211.245 181.08 210.597 183.384 209.301 185.448C208.005 187.464 206.109 189.072 203.613 190.272C201.165 191.424 198.261 192 194.901 192H176.181V141.816H194.181C197.589 141.816 200.493 142.392 202.893 143.544C205.293 144.648 207.093 146.16 208.293 148.08C209.493 150 210.093 152.16 210.093 154.56C210.093 157.536 209.277 160.008 207.645 161.976C206.061 163.896 203.949 165.288 201.309 166.152ZM182.733 163.488H193.749C196.821 163.488 199.197 162.768 200.877 161.328C202.557 159.888 203.397 157.896 203.397 155.352C203.397 152.808 202.557 150.816 200.877 149.376C199.197 147.936 196.773 147.216 193.605 147.216H182.733V163.488ZM194.325 186.6C197.589 186.6 200.133 185.832 201.957 184.296C203.781 182.76 204.693 180.624 204.693 177.888C204.693 175.104 203.733 172.92 201.813 171.336C199.893 169.704 197.325 168.888 194.109 168.888H182.733V186.6H194.325ZM268.649 141.816V192H262.097V141.816H268.649Z" fill="black"/>
</svg>
